<svg width="71" height="32" viewBox="0 0 71 32" fill="none" xmlns="http://www.w3.org/2000/svg">
<path d="M21.2229 25.9286L3.47364 25.9286C2.35254 25.9286 2.15908 24.3694 2.55179 23.6254L11.2351 7.17369C11.7324 6.23151 12.8603 5.92014 13.5452 7.17369L22.3961 23.3729C23.079 24.6228 22.4781 25.9286 21.2229 25.9286Z" fill="url(#paint0_linear_219_794)"/>
<path d="M44.9481 5.69336H42.9464C41.5912 5.69336 40.4926 6.80384 40.4926 8.17368V23.4071C40.4926 24.7769 41.5912 25.8874 42.9464 25.8874H44.9481C46.3033 25.8874 47.402 24.7769 47.402 23.4071V8.17368C47.402 6.80384 46.3033 5.69336 44.9481 5.69336Z" fill="url(#paint1_linear_219_794)"/>
<path d="M36.729 6.1084H18.9798C17.8587 6.1084 17.6712 7.62022 18.058 8.34643L26.7412 24.6492C27.2311 25.5688 28.3768 25.8732 29.0514 24.6492L37.9023 8.59173C38.5749 7.37138 37.9842 6.1084 36.729 6.1084Z" fill="url(#paint2_linear_219_794)"/>
<path d="M50.5115 6.434V24.3742C50.5115 25.5074 51.8337 25.6826 52.4811 25.3059L66.7504 17.0042C67.5703 16.5272 67.8096 15.3793 66.7504 14.6692L52.697 5.2481C51.6409 4.54013 50.5115 5.16528 50.5115 6.434Z" fill="url(#paint3_linear_219_794)"/>
<path d="M65.2204 25.8247V24.5526H64.7502V24.3823H65.8814V24.5526H65.4093V25.8247H65.2204ZM66.0702 25.8247V24.3823H66.3545L66.6922 25.4037C66.7234 25.4988 66.7461 25.5699 66.7604 25.6171C66.7766 25.5646 66.8019 25.4876 66.8363 25.3859L67.178 24.3823H67.4321V25.8247H67.25V24.6175L66.8354 25.8247H66.665L66.2523 24.5968V25.8247H66.0702Z" fill="#333333"/>
<defs>
<linearGradient id="paint0_linear_219_794" x1="27.9226" y1="9.54781" x2="27.9226" y2="19.4138" gradientUnits="userSpaceOnUse">
<stop stop-color="#9B5BA5"/>
<stop offset="1" stop-color="#722782"/>
</linearGradient>
<linearGradient id="paint1_linear_219_794" x1="43.5966" y1="9.23306" x2="43.5966" y2="22.1419" gradientUnits="userSpaceOnUse">
<stop stop-color="#9B5BA5"/>
<stop offset="1" stop-color="#722782"/>
</linearGradient>
<linearGradient id="paint2_linear_219_794" x1="27.7149" y1="9.96529" x2="27.7149" y2="18.7906" gradientUnits="userSpaceOnUse">
<stop stop-color="#9B5BA5"/>
<stop offset="1" stop-color="#722782"/>
</linearGradient>
<linearGradient id="paint3_linear_219_794" x1="54.2881" y1="9.1279" x2="54.2881" y2="20.7743" gradientUnits="userSpaceOnUse">
<stop stop-color="#9B5BA5"/>
<stop offset="1" stop-color="#722782"/>
</linearGradient>
</defs>
</svg>
