<svg width="48" height="48" viewBox="0 0 48 48" fill="none" xmlns="http://www.w3.org/2000/svg">
<g clip-path="url(#clip0_219_386)">
<path d="M22.2784 27.9598L30.5668 18.082L28.8598 16.6497L20.5714 26.5275L22.2784 27.9598Z" fill="black"/>
<path d="M30.5667 18.0823L38.8551 8.20459L37.1482 6.7723L28.8598 16.65L30.5667 18.0823Z" fill="#0019FF"/>
<path d="M30.6765 18.2008L39.136 8.46924L37.4543 7.00738L28.9948 16.7389L30.6765 18.2008Z" fill="#0015FF"/>
<path d="M30.7842 18.3212L39.4122 8.73877L37.7563 7.24779L29.1283 16.8302L30.7842 18.3212Z" fill="#0011FF"/>
<path d="M30.8897 18.4436L39.6837 9.01318L38.0541 7.49353L29.2601 16.9239L30.8897 18.4436Z" fill="#000CFF"/>
<path d="M30.9932 18.5675L39.9504 9.29199L38.3476 7.74413L29.3903 17.0196L30.9932 18.5675Z" fill="#0008FF"/>
<path d="M31.0944 18.6934L40.2122 9.57568L38.6366 8.00008L29.5188 17.1178L31.0944 18.6934Z" fill="#0004FF"/>
<path d="M31.1934 18.821L40.4689 9.86377L38.921 8.26091L29.6455 17.2181L31.1934 18.821Z" fill="#0000FF"/>
<path d="M31.2902 18.9507L40.7206 10.1567L39.2009 8.52711L29.7705 17.3211L31.2902 18.9507Z" fill="#0500FF"/>
<path d="M31.3846 19.0817L40.967 10.4536L39.4761 8.79771L29.8936 17.4258L31.3846 19.0817Z" fill="#0900FF"/>
<path d="M31.4768 19.2144L41.2084 10.7549L39.7465 9.07321L30.015 17.5327L31.4768 19.2144Z" fill="#0D00FF"/>
<path d="M31.5666 19.3484L41.4443 11.0601L40.0121 9.35313L30.1343 17.6415L31.5666 19.3484Z" fill="#1100FF"/>
<path d="M31.6542 19.4844L41.675 11.3696L40.2728 9.63796L30.2519 17.7527L31.6542 19.4844Z" fill="#1600FF"/>
<path d="M31.7393 19.6217L41.9003 11.6831L40.5284 9.92723L30.3675 17.8658L31.7393 19.6217Z" fill="#1A00FF"/>
<path d="M31.822 19.7606L42.12 12.0005L40.779 10.2209L30.481 17.981L31.822 19.7606Z" fill="#1E00FF"/>
<path d="M31.9023 19.9009L42.3341 12.3218L41.0244 10.5191L30.5926 18.0983L31.9023 19.9009Z" fill="#2200FF"/>
<path d="M31.9801 20.0424L42.5426 12.6465L41.2645 10.8212L30.702 18.2172L31.9801 20.0424Z" fill="#2700FF"/>
<path d="M32.0554 20.1856L42.7454 12.9751L41.4993 11.1278L30.8094 18.3383L32.0554 20.1856Z" fill="#2B00FF"/>
<path d="M32.1282 20.3295L42.9424 13.3066L41.7288 11.4379L30.9146 18.4607L32.1282 20.3295Z" fill="#2F00FF"/>
<path d="M32.1986 20.4751L43.1337 13.6421L41.9529 11.7524L31.0178 18.5854L32.1986 20.4751Z" fill="#3300FF"/>
<path d="M32.2663 20.6216L43.319 13.9805L42.1713 12.0705L31.1186 18.7116L32.2663 20.6216Z" fill="#3800FF"/>
<path d="M32.3315 20.7695L43.4984 14.3223L42.3843 12.3926L31.2174 18.8398L32.3315 20.7695Z" fill="#3C00FF"/>
<path d="M32.394 20.9183L43.6718 14.667L42.5915 12.7181L31.3137 18.9695L32.394 20.9183Z" fill="#4000FF"/>
<path d="M32.454 21.0687L43.8391 15.0151L42.793 13.0477L31.4079 19.1013L32.454 21.0687Z" fill="#4400FF"/>
<path d="M32.5113 21.2197L44.0004 15.3657L42.9888 13.3803L31.4997 19.2343L32.5113 21.2197Z" fill="#4800FF"/>
<path d="M32.5661 21.3718L44.1555 15.7192L43.1787 13.7165L31.5893 19.3691L32.5661 21.3718Z" fill="#4D00FF"/>
<path d="M32.6181 21.5246L44.3044 16.0752L43.3627 14.0557L31.6764 19.5052L32.6181 21.5246Z" fill="#5100FF"/>
<path d="M32.6675 21.6787L44.4471 16.4341L43.5408 14.3985L31.7612 19.6431L32.6675 21.6787Z" fill="#5500FF"/>
<path d="M32.7141 21.8332L44.5835 16.7949L43.7129 14.7438L31.8435 19.7821L32.7141 21.8332Z" fill="#5900FF"/>
<path d="M32.7581 21.9885L44.7136 17.1582L43.8789 15.0922L31.9234 19.9226L32.7581 21.9885Z" fill="#5E00FF"/>
<path d="M32.7993 22.1449L44.8373 17.5239L44.0388 15.4437L32.0007 20.0646L32.7993 22.1449Z" fill="#6200FF"/>
<path d="M32.8378 22.3018L44.9546 17.8916L44.1925 15.7977L32.0757 20.2079L32.8378 22.3018Z" fill="#6600FF"/>
<path d="M32.8736 22.4593L45.0656 18.2612L44.3401 16.1544L32.1482 20.3524L32.8736 22.4593Z" fill="#6A00FF"/>
<path d="M32.9066 22.6174L45.1699 18.6328L44.4814 16.5136L32.218 20.4982L32.9066 22.6174Z" fill="#6F00FF"/>
<path d="M32.9369 22.7763L45.2679 19.0063L44.6165 16.8755L32.2854 20.6454L32.9369 22.7763Z" fill="#7300FF"/>
<path d="M32.9643 22.9355L45.3593 19.3813L44.7451 17.2394L32.3501 20.7936L32.9643 22.9355Z" fill="#7700FF"/>
<path d="M32.989 23.0951L45.4441 19.7578L44.8674 17.6055L32.4123 20.9428L32.989 23.0951Z" fill="#7B00FF"/>
<path d="M33.0109 23.2552L45.5223 20.1357L44.9833 17.9737L32.4719 21.0931L33.0109 23.2552Z" fill="#8000FF"/>
<path d="M33.03 23.4158L45.594 20.5151L45.0927 18.344L32.5288 21.2446L33.03 23.4158Z" fill="#8400FF"/>
<path d="M33.0464 23.5764L45.6591 20.8955L45.1958 18.716L32.5831 21.3969L33.0464 23.5764Z" fill="#8800FF"/>
<path d="M33.0599 23.7372L45.7174 21.2769L45.2922 19.0896L32.6347 21.5499L33.0599 23.7372Z" fill="#8C00FF"/>
<path d="M33.0705 23.8988L45.769 21.6597L45.3821 19.4653L32.6836 21.7044L33.0705 23.8988Z" fill="#9100FF"/>
<path d="M33.0784 24.0601L45.8141 22.043L45.4655 19.8422L32.7298 21.8593L33.0784 24.0601Z" fill="#9500FF"/>
<path d="M33.0835 24.2213L45.8524 22.4268L45.5423 20.2202L32.7733 22.0148L33.0835 24.2213Z" fill="#9900FF"/>
<path d="M33.0856 24.383L45.8839 22.8115L45.6124 20.5999L32.814 22.1713L33.0856 24.383Z" fill="#9D00FF"/>
<path d="M33.085 24.5446L45.9088 23.1968L45.6759 20.9807L32.8521 22.3286L33.085 24.5446Z" fill="#A100FF"/>
<path d="M33.0816 24.7063L45.927 23.5825L45.7328 21.3628L32.8874 22.4866L33.0816 24.7063Z" fill="#A600FF"/>
<path d="M33.0754 24.8677L45.9385 23.9683L45.783 21.7454L32.92 22.6449L33.0754 24.8677Z" fill="#AA00FF"/>
<path d="M33.0663 25.0288L45.9431 24.354L45.8265 22.1288L32.9497 22.8037L33.0663 25.0288Z" fill="#AE00FF"/>
<path d="M33.0544 25.1902L45.941 24.7402L45.8633 22.5134L32.9767 22.9634L33.0544 25.1902Z" fill="#B200FF"/>
<path d="M33.0398 25.351L45.9323 25.126L45.8934 22.8981L33.0009 23.1231L33.0398 25.351Z" fill="#B700FF"/>
<path d="M33.0223 25.5117H45.9167V23.2835H33.0223V25.5117Z" fill="#BB00FF"/>
<path d="M33.002 25.6719L45.8945 25.897L45.9334 23.6691L33.0409 23.444L33.002 25.6719Z" fill="#BF00FF"/>
<path d="M32.979 25.8317L45.8656 26.2817L45.9434 24.0549L33.0568 23.6048L32.979 25.8317Z" fill="#C300FF"/>
<path d="M32.9531 25.9912L45.8298 26.666L45.9465 24.4408L33.0697 23.766L32.9531 25.9912Z" fill="#C800FF"/>
<path d="M32.9244 26.1503L45.7875 27.0498L45.9429 24.827L33.0799 23.9275L32.9244 26.1503Z" fill="#CC00FF"/>
<path d="M32.893 26.3088L45.7384 27.4326L45.9326 25.2129L33.0872 24.089L32.893 26.3088Z" fill="#D000FF"/>
<path d="M32.8589 26.4666L45.6827 27.8145L45.9157 25.5984L33.0918 24.2506L32.8589 26.4666Z" fill="#D400FF"/>
<path d="M32.8219 26.6239L45.6202 28.1953L45.8918 25.9837L33.0935 24.4122L32.8219 26.6239Z" fill="#D900FF"/>
<path d="M32.7823 26.7806L45.5513 28.5752L45.8614 26.3686L33.0924 24.5741L32.7823 26.7806Z" fill="#DD00FF"/>
<path d="M32.7399 26.9365L45.4756 28.9536L45.8242 26.7528L33.0885 24.7357L32.7399 26.9365Z" fill="#E100FF"/>
<path d="M32.6948 27.0915L45.3933 29.3306L45.7802 27.1362L33.0817 24.8971L32.6948 27.0915Z" fill="#E500FF"/>
<path d="M32.647 27.2462L45.3046 29.7065L45.7297 27.5192L33.0722 25.0589L32.647 27.2462Z" fill="#EA00FF"/>
<path d="M32.5966 27.3997L45.2092 30.0806L45.6725 27.901L33.0598 25.2201L32.5966 27.3997Z" fill="#EE00FF"/>
<path d="M32.5433 27.552L45.1073 30.4526L45.6085 28.2815L33.0446 25.3809L32.5433 27.552Z" fill="#F200FF"/>
<path d="M32.4875 27.7038L44.9989 30.8232L45.538 28.6612L33.0265 25.5417L32.4875 27.7038Z" fill="#F600FF"/>
<path d="M32.4291 27.8541L44.8842 31.1914L45.4609 29.0391L33.0058 25.7018L32.4291 27.8541Z" fill="#FA00FF"/>
<path d="M32.368 28.0039L44.7629 31.5581L45.3771 29.4162L32.9822 25.862L32.368 28.0039Z" fill="#FF00FF"/>
<path d="M32.3044 28.1524L44.6354 31.9224L45.2869 29.7915L32.9558 26.0215L32.3044 28.1524Z" fill="#FF00FB"/>
<path d="M32.2381 28.2996L44.5015 32.2842L45.19 30.165L32.9267 26.1804L32.2381 28.2996Z" fill="#FF00F7"/>
<path d="M32.1693 28.446L44.3612 32.644L45.0867 30.5372L32.8947 26.3392L32.1693 28.446Z" fill="#FF00F3"/>
<path d="M32.0979 28.5908L44.2147 33.001L44.9768 30.9071L32.86 26.497L32.0979 28.5908Z" fill="#FF00EE"/>
<path d="M32.024 28.7345L44.062 33.3555L44.8605 31.2752L32.8225 26.6543L32.024 28.7345Z" fill="#FF00EA"/>
<path d="M31.9477 28.8772L43.9032 33.7075L44.7379 31.6415L32.7824 26.8112L31.9477 28.8772Z" fill="#FF00E6"/>
<path d="M31.8688 29.0179L43.7382 34.0562L44.6088 32.005L32.7394 26.9668L31.8688 29.0179Z" fill="#FF00E2"/>
<path d="M31.7875 29.1577L43.5671 34.4023L44.4734 32.3667L32.6938 27.1221L31.7875 29.1577Z" fill="#FF00DD"/>
<path d="M31.7038 29.2957L43.3901 34.7451L44.3318 32.7256L32.6455 27.2762L31.7038 29.2957Z" fill="#FF00D9"/>
<path d="M31.6177 29.4324L43.2072 35.085L44.1839 33.0822L32.5945 27.4297L31.6177 29.4324Z" fill="#FF00D5"/>
<path d="M31.5292 29.5674L43.0182 35.4214L44.0298 33.436L32.5408 27.5821L31.5292 29.5674Z" fill="#FF00D1"/>
<path d="M31.4384 29.7013L42.8235 35.7549L43.8696 33.7875L32.4845 27.7339L31.4384 29.7013Z" fill="#FF00CC"/>
<path d="M31.3452 29.8331L42.6229 36.0845L43.7032 34.1356L32.4255 27.8843L31.3452 29.8331Z" fill="#FF00C8"/>
<path d="M31.2497 29.9634L42.4166 36.4106L43.5307 34.4809L32.3638 28.0337L31.2497 29.9634Z" fill="#FF00C4"/>
<path d="M31.152 30.0923L42.2047 36.7334L43.3523 34.8234L32.2996 28.1823L31.152 30.0923Z" fill="#FF00C0"/>
<path d="M31.0521 30.2192L41.9872 37.0522L43.168 35.1626L32.2329 28.3296L31.0521 30.2192Z" fill="#FF00BB"/>
<path d="M30.95 30.3444L41.7642 37.3672L42.9777 35.4984L32.1636 28.4756L30.95 30.3444Z" fill="#FF00B7"/>
<path d="M30.8455 30.4677L41.5355 37.6782L42.7815 35.8309L32.0916 28.6204L30.8455 30.4677Z" fill="#FF00B3"/>
<path d="M30.7391 30.5894L41.3016 37.9854L42.5797 36.1601L32.0172 28.7641L30.7391 30.5894Z" fill="#FF00AF"/>
<path d="M30.6306 30.7089L41.0624 38.2881L42.3721 36.4854L31.9403 28.9062L30.6306 30.7089Z" fill="#FF00AB"/>
<path d="M30.52 30.8268L40.818 38.5869L42.159 36.8074L31.861 29.0473L30.52 30.8268Z" fill="#FF00A6"/>
<path d="M30.4073 30.9427L40.5682 38.8813L41.9401 37.1255L31.7791 29.1869L30.4073 30.9427Z" fill="#FF00A2"/>
<path d="M30.2926 31.0566L40.3135 39.1714L41.7158 37.4397L31.6949 29.325L30.2926 31.0566Z" fill="#FF009E"/>
<path d="M30.176 31.1682L40.0537 39.4565L41.486 37.7496L31.6083 29.4612L30.176 31.1682Z" fill="#FF009A"/>
<path d="M30.0575 31.2783L39.7891 39.7378L41.2509 38.0561L31.5194 29.5966L30.0575 31.2783Z" fill="#FF0095"/>
<path d="M29.937 31.3856L39.5194 40.0137L41.0104 38.3578L31.428 29.7297L29.937 31.3856Z" fill="#FF0091"/>
<path d="M29.8146 31.4912L39.245 40.2852L40.7647 38.6555L31.3342 29.8615L29.8146 31.4912Z" fill="#FF008D"/>
<path d="M29.6905 31.5945L38.9659 40.5518L40.5138 38.9489L31.2383 29.9917L29.6905 31.5945Z" fill="#FF0089"/>
<path d="M29.5645 31.6957L38.6823 40.8135L40.2579 39.2379L31.1401 30.1201L29.5645 31.6957Z" fill="#FF0084"/>
<path d="M29.4369 31.7948L38.3942 41.0703L39.997 39.5224L31.0398 30.247L29.4369 31.7948Z" fill="#FF0080"/>
<path d="M29.3074 31.8919L38.1014 41.3223L39.7311 39.8026L30.9371 30.3722L29.3074 31.8919Z" fill="#FF007C"/>
<path d="M29.1764 31.9859L37.8044 41.5684L39.4603 40.0774L30.8323 30.4949L29.1764 31.9859Z" fill="#FF0078"/>
<path d="M29.0438 32.0785L37.5033 41.8101L39.185 40.3482L30.7255 30.6166L29.0438 32.0785Z" fill="#FF0073"/>
<path d="M28.9095 32.1682L37.1979 42.0459L38.9048 40.6136L30.6164 30.7359L28.9095 32.1682Z" fill="#FF006F"/>
<path d="M28.7736 32.2555L36.8883 42.2764L38.62 40.8741L30.5052 30.8532L28.7736 32.2555Z" fill="#FF006B"/>
<path d="M28.6363 32.341L36.575 42.502L38.3308 41.1301L30.3922 30.9691L28.6363 32.341Z" fill="#FF0067"/>
<path d="M28.4975 32.4237L36.2576 42.7217L38.0371 41.3807L30.277 31.0827L28.4975 32.4237Z" fill="#FF0062"/>
<path d="M28.3572 32.5037L35.9364 42.9355L37.7391 41.6258L30.1599 31.194L28.3572 32.5037Z" fill="#FF005E"/>
<path d="M28.2156 32.5815L35.6116 43.144L37.4368 41.866L30.0409 31.3035L28.2156 32.5815Z" fill="#FF005A"/>
<path d="M28.0727 32.6567L35.2832 43.3467L37.1305 42.1007L29.92 31.4107L28.0727 32.6567Z" fill="#FF0056"/>
<path d="M27.9285 32.7298L34.9513 43.5439L36.8201 42.3304L29.7972 31.5162L27.9285 32.7298Z" fill="#FF0052"/>
<path d="M27.7831 32.8002L34.6161 43.7354L36.5057 42.5546L29.6727 31.6195L27.7831 32.8002Z" fill="#FF004D"/>
<path d="M27.6363 32.8677L34.2775 43.9204L36.1874 42.7728L29.5463 31.7201L27.6363 32.8677Z" fill="#FF0049"/>
<path d="M27.4884 32.9332L33.9357 44.1001L35.8654 42.986L29.4182 31.8191L27.4884 32.9332Z" fill="#FF0045"/>
<path d="M27.3396 32.9957L33.5909 44.2734L35.5398 43.1932L29.2885 31.9154L27.3396 32.9957Z" fill="#FF0041"/>
<path d="M27.1895 33.0553L33.243 44.4404L35.2105 43.3943L29.1569 32.0092L27.1895 33.0553Z" fill="#FF003C"/>
<path d="M27.0385 33.113L32.8925 44.6021L34.8778 43.5905L29.0239 32.1014L27.0385 33.113Z" fill="#FF0038"/>
<path d="M26.8864 33.1674L32.5389 44.7568L34.5417 43.78L28.8891 32.1906L26.8864 33.1674Z" fill="#FF0034"/>
<path d="M26.7334 33.2194L32.1829 44.9058L34.2023 43.9641L28.7529 32.2777L26.7334 33.2194Z" fill="#FF0030"/>
<path d="M26.5796 33.2692L31.8242 45.0488L33.8598 44.1425L28.6152 32.3629L26.5796 33.2692Z" fill="#FF002B"/>
<path d="M26.425 33.3157L31.4633 45.1851L33.5144 44.3144L28.4761 32.445L26.425 33.3157Z" fill="#FF0027"/>
<path d="M26.2695 33.3594L31.0999 45.3149L33.1658 44.4802L28.3355 32.5247L26.2695 33.3594Z" fill="#FF0023"/>
<path d="M26.1133 33.401L30.7343 45.439L32.8145 44.6404L28.1935 32.6024L26.1133 33.401Z" fill="#FF001F"/>
<path d="M25.9563 33.4393L30.3665 45.5562L32.4603 44.794L28.0502 32.6772L25.9563 33.4393Z" fill="#FF001A"/>
<path d="M25.7988 33.4751L29.9968 45.667L32.1037 44.9415L27.9056 32.7496L25.7988 33.4751Z" fill="#FF0016"/>
<path d="M25.6406 33.5081L29.6252 45.7715L31.7444 45.0829L27.7598 32.8196L25.6406 33.5081Z" fill="#FF0012"/>
<path d="M25.4819 33.5386L29.2518 45.8696L31.3827 45.2182L27.6127 32.8871L25.4819 33.5386Z" fill="#FF000E"/>
<path d="M25.3226 33.566L28.8768 45.9609L31.0188 45.3468L27.4646 32.9518L25.3226 33.566Z" fill="#FF0009"/>
<path d="M25.163 33.5903L28.5004 46.0454L30.6527 45.4687L27.3154 33.0136L25.163 33.5903Z" fill="#FF0005"/>
<path d="M25.003 33.6126L28.1224 46.124L30.2845 45.585L27.165 33.0735L25.003 33.6126Z" fill="#FF0001"/>
<path d="M24.8425 33.6313L27.7432 46.1953L29.9143 45.6941L27.0137 33.1301L24.8425 33.6313Z" fill="#FF0300"/>
<path d="M24.6818 33.6481L27.3627 46.2607L29.5422 45.7975L26.8613 33.1848L24.6818 33.6481Z" fill="#FF0700"/>
<path d="M24.5207 33.6613L26.9811 46.3188L29.1684 45.8937L26.708 33.2361L24.5207 33.6613Z" fill="#FF0C00"/>
<path d="M24.3595 33.6721L26.5986 46.3706L28.793 45.9837L26.5539 33.2851L24.3595 33.6721Z" fill="#FF1000"/>
<path d="M24.1982 33.6798L26.2153 46.4155L28.4161 46.067L26.399 33.3313L24.1982 33.6798Z" fill="#FF1400"/>
<path d="M24.0366 33.6851L25.8312 46.4541L28.0377 46.144L26.2432 33.375L24.0366 33.6851Z" fill="#FF1800"/>
<path d="M23.8751 33.687L25.4465 46.4854L27.6582 46.2138L26.0867 33.4155L23.8751 33.687Z" fill="#FF1D00"/>
<path d="M23.7134 33.6864L25.0613 46.5103L27.2773 46.2773L25.9295 33.4535L23.7134 33.6864Z" fill="#FF2100"/>
<path d="M23.552 33.6829L24.6758 46.5283L26.8955 46.3341L25.7717 33.4887L23.552 33.6829Z" fill="#FF2500"/>
<path d="M23.3906 33.677L24.29 46.54L26.5129 46.3846L25.6134 33.5216L23.3906 33.677Z" fill="#FF2900"/>
<path d="M23.2292 33.6681L23.9041 46.5449L26.1292 46.4283L25.4544 33.5515L23.2292 33.6681Z" fill="#FF2E00"/>
<path d="M23.0681 33.6559L23.5181 46.5425L25.7449 46.4647L25.2949 33.5781L23.0681 33.6559Z" fill="#FF3200"/>
<path d="M22.9072 33.6412L23.1322 46.5337L25.3601 46.4948L25.1351 33.6023L22.9072 33.6412Z" fill="#FF3600"/>
<path d="M22.7466 33.6241V46.5186H24.9748V33.6241H22.7466Z" fill="#FF3A00"/>
<path d="M22.5862 33.6036L22.3612 46.4961L24.5891 46.535L24.8141 33.6425L22.5862 33.6036Z" fill="#FF3F00"/>
<path d="M22.4263 33.5807L21.9763 46.4673L24.2032 46.545L24.6532 33.6585L22.4263 33.5807Z" fill="#FF4300"/>
<path d="M22.2669 33.5549L21.592 46.4316L23.8172 46.5483L24.4921 33.6715L22.2669 33.5549Z" fill="#FF4700"/>
<path d="M22.1078 33.5261L21.2084 46.3892L23.4312 46.5446L24.3307 33.6816L22.1078 33.5261Z" fill="#FF4B00"/>
<path d="M21.9494 33.4945L20.8256 46.3398L23.0453 46.534L24.1691 33.6887L21.9494 33.4945Z" fill="#FF5000"/>
<path d="M21.7914 33.4604L20.4436 46.2842L22.6596 46.5171L24.0075 33.6933L21.7914 33.4604Z" fill="#FF5400"/>
<path d="M21.6342 33.4233L20.0627 46.2217L22.2744 46.4932L23.8458 33.6949L21.6342 33.4233Z" fill="#FF5800"/>
<path d="M21.4775 33.3839L19.683 46.1528L21.8895 46.4629L23.6841 33.694L21.4775 33.3839Z" fill="#FF5C00"/>
<path d="M21.3216 33.3415L19.3044 46.0771L21.5053 46.4257L23.5224 33.69L21.3216 33.3415Z" fill="#FF6000"/>
<path d="M21.1665 33.2966L18.9274 45.9951L21.1218 46.382L23.3609 33.6835L21.1665 33.2966Z" fill="#FF6500"/>
<path d="M21.0121 33.2487L18.5518 45.9062L20.7391 46.3314L23.1994 33.6739L21.0121 33.2487Z" fill="#FF6900"/>
<path d="M20.8586 33.1979L18.1777 45.8105L20.3573 46.2738L23.0382 33.6612L20.8586 33.1979Z" fill="#FF6D00"/>
<path d="M20.706 33.145L17.8054 45.709L19.9766 46.2102L22.8772 33.6463L20.706 33.145Z" fill="#FF7100"/>
<path d="M20.5545 33.0892L17.4351 45.6006L19.5971 46.1396L22.7166 33.6282L20.5545 33.0892Z" fill="#FF7600"/>
<path d="M20.4039 33.0308L17.0665 45.4858L19.2188 46.0626L22.5562 33.6075L20.4039 33.0308Z" fill="#FF7A00"/>
<path d="M20.2543 32.9693L16.7001 45.3643L18.842 45.9784L22.3962 33.5835L20.2543 32.9693Z" fill="#FF7E00"/>
<path d="M20.1058 32.9058L16.3358 45.2368L18.4667 45.8883L22.2367 33.5573L20.1058 32.9058Z" fill="#FF8200"/>
<path d="M19.9584 32.8397L15.9738 45.103L18.0929 45.7916L22.0775 33.5282L19.9584 32.8397Z" fill="#FF8700"/>
<path d="M19.8122 32.771L15.6141 44.9629L17.721 45.6883L21.919 33.4964L19.8122 32.771Z" fill="#FF8B00"/>
<path d="M19.6672 32.6996L15.2571 44.8164L17.3509 45.5785L21.7611 33.4617L19.6672 32.6996Z" fill="#FF8F00"/>
<path d="M19.5235 32.6256L14.9026 44.6636L16.9828 45.4621L21.6038 33.4241L19.5235 32.6256Z" fill="#FF9300"/>
<path d="M19.3811 32.5494L14.5508 44.5049L16.6168 45.3396L21.4471 33.3841L19.3811 32.5494Z" fill="#FF9800"/>
<path d="M19.2402 32.4704L14.2019 44.3398L16.253 45.2105L21.2913 33.3411L19.2402 32.4704Z" fill="#FF9C00"/>
<path d="M19.1005 32.3888L13.8558 44.1685L15.8914 45.0748L21.1361 33.2951L19.1005 32.3888Z" fill="#FFA000"/>
<path d="M18.9624 32.3054L13.5129 43.9917L15.5324 44.9334L20.9818 33.2471L18.9624 32.3054Z" fill="#FFA400"/>
<path d="M18.8256 32.2191L13.1731 43.8086L15.1758 44.7854L20.8284 33.1959L18.8256 32.2191Z" fill="#FFA900"/>
<path d="M18.6905 32.1306L12.8365 43.6196L14.8219 44.6312L20.6759 33.1422L18.6905 32.1306Z" fill="#FFAD00"/>
<path d="M18.5569 32.0397L12.5033 43.4248L14.4707 44.4709L20.5243 33.0858L18.5569 32.0397Z" fill="#FFB100"/>
<path d="M18.4248 31.9469L12.1735 43.2246L14.1223 44.3049L20.3737 33.0271L18.4248 31.9469Z" fill="#FFB500"/>
<path d="M18.2945 31.8511L11.8473 43.0181L13.777 44.1322L20.2242 32.9653L18.2945 31.8511Z" fill="#FFB900"/>
<path d="M18.1658 31.7535L11.5247 42.8062L13.4346 43.9538L20.0758 32.9011L18.1658 31.7535Z" fill="#FFBE00"/>
<path d="M18.0388 31.6538L11.2058 42.5889L13.0955 43.7697L19.9285 32.8345L18.0388 31.6538Z" fill="#FFC200"/>
<path d="M17.9137 31.5515L10.8909 42.3657L12.7596 43.5793L19.7824 32.7651L17.9137 31.5515Z" fill="#FFC600"/>
<path d="M17.7902 31.4472L10.5797 42.1372L12.427 43.3832L19.6375 32.6932L17.7902 31.4472Z" fill="#FFCA00"/>
<path d="M17.6687 31.3408L10.2727 41.9033L12.098 43.1814L19.4939 32.6189L17.6687 31.3408Z" fill="#FFCF00"/>
<path d="M17.549 31.2322L9.96985 41.6641L11.7725 42.9738L19.3517 32.542L17.549 31.2322Z" fill="#FFD300"/>
<path d="M17.4313 31.1215L9.67126 41.4194L11.4508 42.7604L19.2109 32.4625L17.4313 31.1215Z" fill="#FFD700"/>
<path d="M17.3154 31.009L9.37683 41.1699L11.1327 42.5418L19.0713 32.3808L17.3154 31.009Z" fill="#FFDB00"/>
<path d="M17.2017 30.8942L9.08691 40.915L10.8186 42.3173L18.9333 32.2964L17.2017 30.8942Z" fill="#FFE000"/>
<path d="M17.0898 30.7776L8.80139 40.6553L10.5083 42.0876L18.7967 32.2098L17.0898 30.7776Z" fill="#FFE400"/>
<path d="M16.98 30.6591L8.52051 40.3906L10.2022 41.8525L18.6617 32.1209L16.98 30.6591Z" fill="#FFE800"/>
<path d="M16.8723 30.5387L8.24426 40.1211L9.90017 41.6121L18.5282 32.0296L16.8723 30.5387Z" fill="#FFEC00"/>
<path d="M16.7668 30.4163L7.97278 39.8467L9.60241 41.3663L18.3964 31.9359L16.7668 30.4163Z" fill="#FFF100"/>
<path d="M16.6634 30.2919L7.70618 39.5674L9.30904 41.1152L18.2663 31.8398L16.6634 30.2919Z" fill="#FFF500"/>
<path d="M16.5622 30.1659L7.44446 39.2837L9.02006 40.8593L18.1378 31.7415L16.5622 30.1659Z" fill="#FFF900"/>
<path d="M16.4632 30.0384L7.18774 38.9956L8.73561 40.5985L18.0111 31.6412L16.4632 30.0384Z" fill="#FFFD00"/>
<path d="M16.3664 29.9091L6.93604 38.7031L8.45569 40.3328L17.8861 31.5388L16.3664 29.9091Z" fill="#FCFF00"/>
<path d="M16.272 29.7782L6.68958 38.4062L8.18056 40.0622L17.763 31.4341L16.272 29.7782Z" fill="#F8FF00"/>
<path d="M16.1798 29.6455L6.44824 38.105L7.9101 39.7867L17.6417 31.3271L16.1798 29.6455Z" fill="#F4FF00"/>
<path d="M16.0899 29.5109L6.21216 37.7993L7.64444 39.5062L17.5222 31.2179L16.0899 29.5109Z" fill="#F0FF00"/>
<path d="M16.0024 29.375L5.98157 37.4897L7.38384 39.2214L17.4047 31.1067L16.0024 29.375Z" fill="#ECFF00"/>
<path d="M15.9173 29.2377L5.75635 37.1763L7.12819 38.9321L17.2892 30.9935L15.9173 29.2377Z" fill="#E7FF00"/>
<path d="M15.8346 29.0988L5.53662 36.8589L6.87761 38.6384L17.1756 30.8784L15.8346 29.0988Z" fill="#E3FF00"/>
<path d="M15.7543 28.9589L5.32251 36.5381L6.63224 38.3408L17.0641 30.7616L15.7543 28.9589Z" fill="#DFFF00"/>
<path d="M15.6765 28.8174L5.11401 36.2134L6.39208 38.0386L16.9546 30.6427L15.6765 28.8174Z" fill="#DBFF00"/>
<path d="M15.6011 28.6743L4.91113 35.8848L6.15715 37.7321L16.8471 30.5216L15.6011 28.6743Z" fill="#D6FF00"/>
<path d="M15.5283 28.5299L4.71411 35.5527L5.9277 37.4215L16.7419 30.3987L15.5283 28.5299Z" fill="#D2FF00"/>
<path d="M15.4581 28.3848L4.52295 35.2178L5.70374 37.1074L16.6388 30.2744L15.4581 28.3848Z" fill="#CEFF00"/>
<path d="M15.3903 28.2378L4.33765 34.8789L5.48527 36.7889L16.538 30.1478L15.3903 28.2378Z" fill="#CAFF00"/>
<path d="M15.3251 28.0899L4.1582 34.5371L5.27232 36.4668L16.4392 30.0196L15.3251 28.0899Z" fill="#C5FF00"/>
<path d="M15.2625 27.941L3.98474 34.1924L5.06501 36.1412L16.3428 29.8899L15.2625 27.941Z" fill="#C1FF00"/>
<path d="M15.2026 27.7912L3.8175 33.8447L4.8636 35.8121L16.2487 29.7586L15.2026 27.7912Z" fill="#BDFF00"/>
<path d="M15.1453 27.6402L3.65625 33.4941L4.66785 35.4795L16.1569 29.6256L15.1453 27.6402Z" fill="#B9FF00"/>
<path d="M15.0905 27.4881L3.5011 33.1406L4.47789 35.1434L16.0673 29.4908L15.0905 27.4881Z" fill="#B4FF00"/>
<path d="M15.0385 27.3352L3.35217 32.7847L4.29387 34.8041L15.9802 29.3547L15.0385 27.3352Z" fill="#B0FF00"/>
<path d="M14.9891 27.1811L3.20947 32.4258L4.11578 34.4614L15.8954 29.2167L14.9891 27.1811Z" fill="#ACFF00"/>
<path d="M14.9425 27.0267L3.07312 32.0649L3.94376 34.116L15.8132 29.0778L14.9425 27.0267Z" fill="#A8FF00"/>
<path d="M14.8985 26.8708L2.94299 31.7012L3.77771 33.7672L15.7332 28.9368L14.8985 26.8708Z" fill="#A3FF00"/>
<path d="M14.8572 26.715L2.81921 31.3359L3.61774 33.4162L15.6557 28.7952L14.8572 26.715Z" fill="#9FFF00"/>
<path d="M14.8187 26.5581L2.7019 30.9683L3.46401 33.0621L15.5808 28.652L14.8187 26.5581Z" fill="#9BFF00"/>
<path d="M14.783 26.4001L2.59106 30.5981L3.31651 32.705L15.5084 28.507L14.783 26.4001Z" fill="#97FF00"/>
<path d="M14.7499 26.242L2.48657 30.2266L3.17514 32.3457L15.4385 28.3611L14.7499 26.242Z" fill="#93FF00"/>
<path d="M14.7197 26.0835L2.38867 29.8535L3.04015 31.9844L15.3712 28.2144L14.7197 26.0835Z" fill="#8EFF00"/>
<path d="M14.6923 25.9243L2.29736 29.4785L2.91155 31.6204L15.3065 28.0662L14.6923 25.9243Z" fill="#8AFF00"/>
<path d="M14.6675 25.7647L2.2124 29.1021L2.78911 31.2544L15.2442 27.917L14.6675 25.7647Z" fill="#86FF00"/>
<path d="M14.6457 25.6047L2.13428 28.7241L2.67334 30.8862L15.1848 27.7667L14.6457 25.6047Z" fill="#82FF00"/>
<path d="M14.6266 25.4441L2.06262 28.3447L2.56387 30.5159L15.1278 27.6152L14.6266 25.4441Z" fill="#7DFF00"/>
<path d="M14.6102 25.2834L1.99756 27.9644L2.46084 30.1439L15.0735 27.463L14.6102 25.2834Z" fill="#79FF00"/>
<path d="M14.5968 25.1221L1.93921 27.5825L2.36438 29.7698L15.0219 27.3094L14.5968 25.1221Z" fill="#75FF00"/>
<path d="M14.5861 24.9611L1.88757 27.2002L2.2745 29.3946L14.9731 27.1555L14.5861 24.9611Z" fill="#71FF00"/>
<path d="M14.5782 24.7998L1.84253 26.8169L2.1911 29.0177L14.9268 27.0006L14.5782 24.7998Z" fill="#6CFF00"/>
<path d="M14.5732 24.6381L1.8042 26.4326L2.11431 28.6392L14.8833 26.8446L14.5732 24.6381Z" fill="#68FF00"/>
<path d="M14.5709 24.4764L1.77258 26.0479L2.04414 28.2595L14.8425 26.688L14.5709 24.4764Z" fill="#64FF00"/>
<path d="M14.5715 24.3153L1.74768 25.6631L1.9806 27.8791L14.8044 26.5313L14.5715 24.3153Z" fill="#60FF00"/>
<path d="M14.575 24.1535L1.72961 25.2773L1.92382 27.4971L14.7692 26.3733L14.575 24.1535Z" fill="#5BFF00"/>
<path d="M14.5812 23.9921L1.71814 24.8916L1.87357 27.1144L14.7366 26.2149L14.5812 23.9921Z" fill="#57FF00"/>
<path d="M14.5903 23.8305L1.7135 24.5054L1.83012 26.7306L14.7069 26.0557L14.5903 23.8305Z" fill="#53FF00"/>
<path d="M14.6022 23.6696L1.71558 24.1196L1.79334 26.3465L14.6799 25.8965L14.6022 23.6696Z" fill="#4FFF00"/>
<path d="M14.6167 23.5088L1.72424 23.7339L1.76313 25.9618L14.6556 25.7367L14.6167 23.5088Z" fill="#4AFF00"/>
<path d="M14.6342 23.3481H1.73975V25.5764H14.6342V23.3481Z" fill="#46FF00"/>
<path d="M14.6546 23.1879L1.76208 22.9629L1.7232 25.1908L14.6157 25.4158L14.6546 23.1879Z" fill="#42FF00"/>
<path d="M14.6776 23.0276L1.79102 22.5776L1.71325 24.8045L14.5998 25.2545L14.6776 23.0276Z" fill="#3EFF00"/>
<path d="M14.7034 22.8682L1.82666 22.1934L1.71004 24.4185L14.5868 25.0934L14.7034 22.8682Z" fill="#3AFF00"/>
<path d="M14.7321 22.7095L1.86902 21.8101L1.71358 24.0329L14.5766 24.9323L14.7321 22.7095Z" fill="#35FF00"/>
<path d="M14.7635 22.5511L1.91809 21.4272L1.72389 23.647L14.5693 24.7708L14.7635 22.5511Z" fill="#31FF00"/>
<path d="M14.7977 22.3932L1.97388 21.0454L1.74096 23.2614L14.5648 24.6093L14.7977 22.3932Z" fill="#2DFF00"/>
<path d="M14.8346 22.2355L2.03625 20.6641L1.7647 22.8757L14.563 24.4471L14.8346 22.2355Z" fill="#29FF00"/>
<path d="M14.8743 22.0792L2.10535 20.2847L1.79524 22.4912L14.5642 24.2858L14.8743 22.0792Z" fill="#24FF00"/>
<path d="M14.9166 21.9229L2.18091 19.9058L1.83233 22.1066L14.568 24.1237L14.9166 21.9229Z" fill="#20FF00"/>
<path d="M14.9617 21.7679L2.26318 19.5288L1.87625 21.7232L14.5748 23.9623L14.9617 21.7679Z" fill="#1CFF00"/>
<path d="M15.0096 21.6137L2.35205 19.1533L1.92688 21.3406L14.5844 23.801L15.0096 21.6137Z" fill="#18FF00"/>
<path d="M15.0601 21.4602L2.44739 18.7793L1.98411 20.9588L14.5968 23.6398L15.0601 21.4602Z" fill="#13FF00"/>
<path d="M15.1133 21.3078L2.54932 18.4072L2.04807 20.5784L14.612 23.479L15.1133 21.3078Z" fill="#0FFF00"/>
<path d="M15.169 21.1561L2.65759 18.0366L2.11853 20.1987L14.63 23.3181L15.169 21.1561Z" fill="#0BFF00"/>
<path d="M15.2275 21.0053L2.77246 17.668L2.19575 19.8203L14.6508 23.1576L15.2275 21.0053Z" fill="#07FF00"/>
<path d="M15.2885 20.8559L2.89355 17.3018L2.27937 19.4437L14.6743 22.9979L15.2885 20.8559Z" fill="#02FF00"/>
<path d="M15.3523 20.7075L3.02124 16.9375L2.36977 19.0684L14.7008 22.8383L15.3523 20.7075Z" fill="#00FF02"/>
<path d="M15.4185 20.5598L3.15515 16.5752L2.46659 18.6944L14.7299 22.679L15.4185 20.5598Z" fill="#00FF06"/>
<path d="M15.4874 20.4138L3.29541 16.2158L2.56997 18.3227L14.7619 22.5207L15.4874 20.4138Z" fill="#00FF0A"/>
<path d="M15.5587 20.2686L3.44189 15.8584L2.67979 17.9523L14.7966 22.3624L15.5587 20.2686Z" fill="#00FF0F"/>
<path d="M15.6326 20.1249L3.5946 15.5039L2.79607 17.5841L14.8341 22.2051L15.6326 20.1249Z" fill="#00FF13"/>
<path d="M15.7089 19.9827L3.75342 15.1523L2.9187 17.2183L14.8742 22.0487L15.7089 19.9827Z" fill="#00FF17"/>
<path d="M15.7877 19.8415L3.91833 14.8032L3.04769 16.8543L14.9171 21.8926L15.7877 19.8415Z" fill="#00FF1B"/>
<path d="M15.8691 19.7022L4.08948 14.4575L3.18317 16.4931L14.9628 21.7378L15.8691 19.7022Z" fill="#00FF1F"/>
<path d="M15.9528 19.5637L4.26648 14.1143L3.32478 16.1337L15.0111 21.5832L15.9528 19.5637Z" fill="#00FF24"/>
<path d="M16.0389 19.427L4.44946 13.7744L3.47267 15.7771L15.0621 21.4297L16.0389 19.427Z" fill="#00FF28"/>
<path d="M16.1275 19.2919L4.63843 13.438L3.62683 15.4234L15.1159 21.2773L16.1275 19.2919Z" fill="#00FF2C"/>
<path d="M16.2182 19.1586L4.83313 13.105L3.78703 15.0724L15.1722 21.126L16.2182 19.1586Z" fill="#00FF30"/>
<path d="M16.3114 19.0263L5.03369 12.7749L3.95342 14.7238L15.2312 20.9751L16.3114 19.0263Z" fill="#00FF35"/>
<path d="M16.4069 18.896L5.23999 12.4487L4.12587 14.3784L15.2928 20.8257L16.4069 18.896Z" fill="#00FF39"/>
<path d="M16.5046 18.7671L5.4519 12.126L4.30428 14.036L15.357 20.6771L16.5046 18.7671Z" fill="#00FF3D"/>
<path d="M16.6045 18.6401L5.66943 11.8071L4.48865 13.6968L15.4238 20.5298L16.6045 18.6401Z" fill="#00FF41"/>
<path d="M16.7067 18.515L5.89246 11.4922L4.67887 13.3609L15.4931 20.3838L16.7067 18.515Z" fill="#00FF46"/>
<path d="M16.811 18.3916L6.12097 11.1812L4.87496 13.0284L15.5649 20.2389L16.811 18.3916Z" fill="#00FF4A"/>
<path d="M16.9175 18.2705L6.35498 10.8745L5.07691 12.6998L15.6394 20.0957L16.9175 18.2705Z" fill="#00FF4E"/>
<path d="M17.0259 18.1505L6.59412 10.5713L5.28439 12.374L15.7162 19.9531L17.0259 18.1505Z" fill="#00FF52"/>
<path d="M17.1366 18.033L6.83862 10.2729L5.49763 12.0525L15.7956 19.8126L17.1366 18.033Z" fill="#00FF57"/>
<path d="M17.2492 17.9171L7.08826 9.97852L5.71642 11.7344L15.8774 19.673L17.2492 17.9171Z" fill="#00FF5B"/>
<path d="M17.3639 17.8032L7.34302 9.68848L5.94074 11.4201L15.9616 19.5349L17.3639 17.8032Z" fill="#00FF5F"/>
<path d="M17.4806 17.6912L7.60291 9.40283L6.17062 11.1098L16.0483 19.3982L17.4806 17.6912Z" fill="#00FF63"/>
<path d="M17.5991 17.5816L7.86755 9.12207L6.4057 10.8037L16.1373 19.2633L17.5991 17.5816Z" fill="#00FF68"/>
<path d="M17.7196 17.4738L8.13721 8.8457L6.64622 10.5016L16.2287 19.1297L17.7196 17.4738Z" fill="#00FF6C"/>
<path d="M17.8419 17.3682L8.4115 8.57422L6.89184 10.2039L16.3222 18.9978L17.8419 17.3682Z" fill="#00FF70"/>
<path d="M17.966 17.2649L8.69055 8.30762L7.14269 9.91048L16.4182 18.8677L17.966 17.2649Z" fill="#00FF74"/>
<path d="M18.092 17.1636L8.97424 8.0459L7.39864 9.6215L16.5164 18.7393L18.092 17.1636Z" fill="#00FF78"/>
<path d="M18.2197 17.0646L9.26245 7.78906L7.65959 9.33693L16.6168 18.6124L18.2197 17.0646Z" fill="#00FF7D"/>
<path d="M18.349 16.968L9.55505 7.5376L7.92542 9.05725L16.7194 18.4877L18.349 16.968Z" fill="#00FF81"/>
<path d="M18.4801 16.8735L9.85205 7.29102L8.19615 8.782L16.8242 18.3644L18.4801 16.8735Z" fill="#00FF85"/>
<path d="M18.6128 16.7814L10.1533 7.0498L8.47165 8.51166L16.9312 18.2432L18.6128 16.7814Z" fill="#00FF89"/>
<path d="M18.7471 16.6917L10.4587 6.81396L8.75181 8.24625L17.0402 18.124L18.7471 16.6917Z" fill="#00FF8E"/>
<path d="M18.8829 16.6039L10.7682 6.58301L9.03652 7.98528L17.1513 18.0062L18.8829 16.6039Z" fill="#00FF92"/>
<path d="M19.0203 16.5189L11.0817 6.35791L9.32579 7.72975L17.2644 17.8907L19.0203 16.5189Z" fill="#00FF96"/>
<path d="M19.1591 16.4361L11.399 6.13818L9.6195 7.47917L17.3796 17.7771L19.1591 16.4361Z" fill="#00FF9A"/>
<path d="M19.2993 16.3557L11.7201 5.92383L9.91741 7.23355L17.4966 17.6654L19.2993 16.3557Z" fill="#00FF9F"/>
<path d="M19.4409 16.2778L12.0449 5.71533L10.2197 6.9934L17.6156 17.5559L19.4409 16.2778Z" fill="#00FFA3"/>
<path d="M19.5838 16.2027L12.3733 5.5127L10.526 6.75871L17.7365 17.4487L19.5838 16.2027Z" fill="#00FFA7"/>
<path d="M19.728 16.1301L12.7052 5.31592L10.8364 6.5295L17.8593 17.3437L19.728 16.1301Z" fill="#00FFAB"/>
<path d="M19.8735 16.0596L13.0405 5.12451L11.1509 6.3053L17.9839 17.2404L19.8735 16.0596Z" fill="#00FFB0"/>
<path d="M20.0202 15.9917L13.379 4.93896L11.4691 6.08659L18.1102 17.1393L20.0202 15.9917Z" fill="#00FFB4"/>
<path d="M20.168 15.9267L13.7208 4.75977L11.7911 5.87389L18.2383 17.0408L20.168 15.9267Z" fill="#00FFB8"/>
<path d="M20.317 15.8642L14.0657 4.58643L12.1168 5.6667L18.3682 16.9444L20.317 15.8642Z" fill="#00FFBC"/>
<path d="M20.467 15.8041L14.4135 4.41895L12.446 5.46504L18.4996 16.8502L20.467 15.8041Z" fill="#00FFC1"/>
<path d="M20.6181 15.7468L14.7642 4.25781L12.7788 5.26941L18.6327 16.7584L20.6181 15.7468Z" fill="#00FFC5"/>
<path d="M20.7701 15.692L15.1176 4.10254L13.1148 5.07934L18.7674 16.6688L20.7701 15.692Z" fill="#00FFC9"/>
<path d="M20.9231 15.64L15.4736 3.95361L13.4542 4.89531L18.9036 16.5816L20.9231 15.64Z" fill="#00FFCD"/>
<path d="M21.0769 15.5907L15.8323 3.81104L13.7967 4.71734L19.0413 16.497L21.0769 15.5907Z" fill="#00FFD1"/>
<path d="M21.2316 15.5442L16.1934 3.6748L14.1423 4.54545L19.1805 16.4148L21.2316 15.5442Z" fill="#00FFD6"/>
<path d="M21.3871 15.5L16.5568 3.54443L14.4908 4.37915L19.3211 16.3347L21.3871 15.5Z" fill="#00FFDA"/>
<path d="M21.5433 15.4589L16.9224 3.4209L14.8421 4.21943L19.4631 16.2574L21.5433 15.4589Z" fill="#00FFDE"/>
<path d="M21.7002 15.42L17.29 3.30322L15.1962 4.06533L19.6063 16.1821L21.7002 15.42Z" fill="#00FFE2"/>
<path d="M21.8578 15.3843L17.6598 3.19238L15.5529 3.91783L19.751 16.1098L21.8578 15.3843Z" fill="#00FFE7"/>
<path d="M22.016 15.3517L18.0314 3.08838L15.9122 3.77694L19.8968 16.0403L22.016 15.3517Z" fill="#00FFEB"/>
<path d="M22.1746 15.3213L18.4047 2.99023L16.2738 3.64171L20.0438 15.9727L22.1746 15.3213Z" fill="#00FFEF"/>
<path d="M22.3339 15.2939L18.7797 2.89893L16.6377 3.51311L20.1919 15.9081L22.3339 15.2939Z" fill="#00FFF3"/>
<path d="M22.4936 15.269L19.1562 2.81396L17.0039 3.39068L20.3413 15.8458L22.4936 15.269Z" fill="#00FFF8"/>
<path d="M22.6536 15.2473L19.5342 2.73584L17.3721 3.2749L20.4916 15.7863L22.6536 15.2473Z" fill="#00FFFC"/>
<path d="M22.8141 15.228L19.9135 2.66406L17.7423 3.16531L20.6429 15.7293L22.8141 15.228Z" fill="#00FEFF"/>
<path d="M22.9749 15.2118L20.2939 2.59912L18.1144 3.0624L20.7953 15.6751L22.9749 15.2118Z" fill="#00FAFF"/>
<path d="M23.1358 15.1981L20.6754 2.54053L18.4881 2.9657L20.9485 15.6232L23.1358 15.1981Z" fill="#00F5FF"/>
<path d="M23.2971 15.1878L21.058 2.48926L18.8636 2.87619L21.1027 15.5747L23.2971 15.1878Z" fill="#00F1FF"/>
<path d="M23.4584 15.1795L21.4413 2.44385L19.2405 2.79242L21.2576 15.5281L23.4584 15.1795Z" fill="#00EDFF"/>
<path d="M23.62 15.1747L21.8254 2.40576L19.6189 2.71587L21.4134 15.4848L23.62 15.1747Z" fill="#00E9FF"/>
<path d="M23.7815 15.1724L22.2101 2.37402L19.9985 2.64558L21.5699 15.4439L23.7815 15.1724Z" fill="#00E4FF"/>
<path d="M23.9431 15.1729L22.5952 2.34912L20.3792 2.58204L21.727 15.4058L23.9431 15.1729Z" fill="#00E0FF"/>
<path d="M24.1045 15.1764L22.9807 2.33105L20.761 2.52526L21.8848 15.3706L24.1045 15.1764Z" fill="#00DCFF"/>
<path d="M24.266 15.1829L23.3666 2.31982L21.1438 2.47526L22.0432 15.3383L24.266 15.1829Z" fill="#00D8FF"/>
<path d="M24.4274 15.1917L23.7526 2.31494L21.5274 2.43156L22.2022 15.3083L24.4274 15.1917Z" fill="#00D4FF"/>
<path d="M24.5886 15.2035L24.1385 2.31689L21.9117 2.39466L22.3617 15.2813L24.5886 15.2035Z" fill="#00CFFF"/>
<path d="M24.7495 15.2182L24.5244 2.32568L22.2965 2.36457L22.5216 15.2571L24.7495 15.2182Z" fill="#00CBFF"/>
<path d="M24.91 15.2358V2.34131H22.6818V15.2358H24.91Z" fill="#00C7FF"/>
<path d="M25.0704 15.2563L25.2954 2.36377L23.0675 2.32488L22.8425 15.2174L25.0704 15.2563Z" fill="#00C3FF"/>
<path d="M25.2303 15.2792L25.6803 2.39258L23.4534 2.31481L23.0034 15.2014L25.2303 15.2792Z" fill="#00BEFF"/>
<path d="M25.3897 15.305L26.0646 2.42822L23.8394 2.31161L23.1645 15.1884L25.3897 15.305Z" fill="#00BAFF"/>
<path d="M25.5488 15.3337L26.4482 2.4707L24.2254 2.31527L23.326 15.1783L25.5488 15.3337Z" fill="#00B6FF"/>
<path d="M25.7072 15.3649L26.8311 2.51953L24.6113 2.32533L23.4875 15.1707L25.7072 15.3649Z" fill="#00B2FF"/>
<path d="M25.8652 15.399L27.213 2.5752L24.997 2.34228L23.6491 15.1661L25.8652 15.399Z" fill="#00ADFF"/>
<path d="M26.0224 15.436L27.5939 2.6377L25.3822 2.36614L23.8108 15.1645L26.0224 15.436Z" fill="#00A9FF"/>
<path d="M26.1791 15.476L27.9736 2.70703L25.7671 2.39692L23.9725 15.1659L26.1791 15.476Z" fill="#00A5FF"/>
<path d="M26.335 15.5184L28.3522 2.78271L26.1514 2.43414L24.1342 15.1698L26.335 15.5184Z" fill="#00A1FF"/>
<path d="M26.4902 15.5633L28.7292 2.86475L26.5349 2.47782L24.2958 15.1764L26.4902 15.5633Z" fill="#009CFF"/>
<path d="M26.6445 15.6112L29.1049 2.95361L26.9176 2.52844L24.4572 15.186L26.6445 15.6112Z" fill="#0098FF"/>
<path d="M26.798 15.6615L29.4789 3.04883L27.2993 2.58555L24.6184 15.1982L26.798 15.6615Z" fill="#0094FF"/>
<path d="M26.9505 15.7148L29.8511 3.15088L27.6799 2.64963L24.7793 15.2136L26.9505 15.7148Z" fill="#0090FF"/>
<path d="M27.1021 15.7707L30.2216 3.25928L28.0595 2.72022L24.9401 15.2316L27.1021 15.7707Z" fill="#008BFF"/>
<path d="M27.2528 15.8291L30.5901 3.37402L28.4378 2.79731L25.1004 15.2524L27.2528 15.8291Z" fill="#0087FF"/>
<path d="M27.4024 15.8901L30.9565 3.49512L28.8146 2.88093L25.2604 15.2759L27.4024 15.8901Z" fill="#0083FF"/>
<path d="M27.5508 15.9536L31.3208 3.62256L29.1899 2.97108L25.42 15.3021L27.5508 15.9536Z" fill="#007FFF"/>
<path d="M27.6981 16.0202L31.6827 3.75684L29.5636 3.06827L25.579 15.3316L27.6981 16.0202Z" fill="#007BFF"/>
<path d="M27.8443 16.0889L32.0424 3.89697L29.9355 3.17153L25.7375 15.3635L27.8443 16.0889Z" fill="#0076FF"/>
<path d="M27.9894 16.1603L32.3995 4.04346L30.3057 3.28135L25.8955 15.3982L27.9894 16.1603Z" fill="#0072FF"/>
<path d="M28.1331 16.2343L32.754 4.19629L30.6738 3.39776L26.0528 15.4358L28.1331 16.2343Z" fill="#006EFF"/>
<path d="M28.2754 16.3105L33.1057 4.35498L31.0397 3.52027L26.2094 15.4758L28.2754 16.3105Z" fill="#006AFF"/>
<path d="M28.4164 16.3894L33.4547 4.52002L31.4036 3.64938L26.3653 15.5188L28.4164 16.3894Z" fill="#0065FF"/>
<path d="M28.556 16.4706L33.8007 4.69092L31.7651 3.78461L26.5204 15.5643L28.556 16.4706Z" fill="#0061FF"/>
<path d="M28.6942 16.5545L34.1437 4.86816L32.1242 3.92647L26.6748 15.6128L28.6942 16.5545Z" fill="#005DFF"/>
<path d="M28.831 16.6407L34.4835 5.05127L32.4808 4.07447L26.8282 15.6639L28.831 16.6407Z" fill="#0059FF"/>
<path d="M28.9661 16.7288L34.8201 5.23975L32.8347 4.22815L26.9807 15.7172L28.9661 16.7288Z" fill="#0054FF"/>
<path d="M29.0997 16.8197L35.1533 5.43457L33.1859 4.38847L27.1323 15.7736L29.0997 16.8197Z" fill="#0050FF"/>
<path d="M29.2318 16.913L35.4832 5.63525L33.5343 4.55498L27.2829 15.8327L29.2318 16.913Z" fill="#004CFF"/>
<path d="M29.3621 17.0082L35.8093 5.84131L33.8796 4.72719L27.4324 15.8941L29.3621 17.0082Z" fill="#0048FF"/>
<path d="M29.4908 17.1059L36.132 6.05322L34.222 4.90559L27.5809 15.9583L29.4908 17.1059Z" fill="#0043FF"/>
<path d="M29.6178 17.2061L36.4508 6.271L34.5612 5.09021L27.7281 16.0253L29.6178 17.2061Z" fill="#003FFF"/>
<path d="M29.7429 17.3083L36.7657 6.49414L34.897 5.28055L27.8742 16.0947L29.7429 17.3083Z" fill="#003BFF"/>
<path d="M29.8663 17.4126L37.0768 6.72266L35.2295 5.47664L28.019 16.1666L29.8663 17.4126Z" fill="#0037FF"/>
<path d="M29.9878 17.5191L37.3838 6.95654L35.5585 5.67848L28.1626 16.241L29.9878 17.5191Z" fill="#0032FF"/>
<path d="M30.1076 17.6276L37.6868 7.1958L35.8841 5.88607L28.3049 16.3179L30.1076 17.6276Z" fill="#002EFF"/>
<path d="M30.2253 17.7379L37.9854 7.43994L36.2058 6.09895L28.4457 16.3969L30.2253 17.7379Z" fill="#002AFF"/>
<path d="M30.3412 17.8509L38.2798 7.68994L36.5239 6.3181L28.5853 16.4791L30.3412 17.8509Z" fill="#0026FF"/>
<path d="M30.455 17.9657L38.5697 7.94482L36.838 6.54255L28.7233 16.5634L30.455 17.9657Z" fill="#0022FF"/>
<path d="M24.4812 45.7788H23.2154C23.1567 45.7574 23.0978 45.7521 23.0386 45.7521C22.3628 45.7201 21.6919 45.6656 21.0269 45.5752C19.7829 45.4142 18.5597 45.1407 17.369 44.7603C15.3256 44.1064 13.4216 43.168 11.657 41.9452C10.0208 40.8081 8.5732 39.4677 7.31255 37.9238C5.82635 36.1113 4.66828 34.111 3.84731 31.913C3.11227 29.9612 2.67259 27.9401 2.5382 25.854C2.5382 25.7414 2.51685 25.6288 2.47949 25.5161V23.3123C2.51685 23.2152 2.53286 23.1138 2.5382 23.012C2.56489 22.5132 2.61826 22.0144 2.68337 21.5215C3.00542 19.1408 3.71292 16.8829 4.80193 14.7433C5.55277 13.2685 6.46468 11.8964 7.53693 10.6302C8.59904 9.37577 9.78977 8.25463 11.1088 7.27365C13.2597 5.67548 15.6252 4.52274 18.2101 3.81535C19.465 3.47259 20.7473 3.24736 22.0448 3.13976C22.2751 3.11842 22.517 3.13976 22.7474 3.08105H24.9142C25.0803 3.12909 25.2521 3.1024 25.4181 3.11842C26.2767 3.19314 27.1294 3.30105 27.9763 3.46704C30.6422 3.99254 33.1144 4.99018 35.3997 6.464C37.1752 7.60605 38.7413 8.98402 40.1088 10.5872C41.2086 11.8742 42.1413 13.2739 42.9031 14.7854C43.8042 16.5713 44.4475 18.4422 44.813 20.4099C45.0058 21.45 45.151 22.501 45.1559 23.5628C45.1559 23.6333 45.1719 23.708 45.1772 23.7772V25.0427C45.1559 25.1228 45.1559 25.2087 45.1505 25.2945C45.1505 25.4981 45.1505 25.7025 45.1345 25.906C45.0374 27.2039 44.8341 28.4851 44.5121 29.7505C43.8954 32.1261 42.9026 34.3299 41.5242 36.3618C40.4996 37.874 39.3039 39.2362 37.9306 40.4423C36.5631 41.6435 35.0662 42.657 33.4409 43.4769C31.5686 44.4204 29.6003 45.0751 27.5353 45.4338C26.7417 45.5731 25.9424 45.664 25.1381 45.7124C24.9262 45.7369 24.7014 45.7318 24.4812 45.7788Z" fill="#383838"/>
<path style="mix-blend-mode:lighten" d="M18.2756 15.5719C18.2606 15.9642 18.3303 16.393 18.4459 16.8219C18.6661 17.638 19.031 18.3858 19.4613 19.0922C20.4416 20.6984 21.6771 22.0736 23.0178 23.3504C23.1275 23.4554 23.2582 23.544 23.3982 23.6116C23.5384 23.6845 23.6783 23.6845 23.8231 23.622C23.9631 23.5595 24.0883 23.4705 24.1934 23.3551C24.6587 22.8741 25.1186 22.3923 25.5589 21.8952C26.1791 21.1889 26.7696 20.4622 27.3049 19.6827C27.7904 18.9764 28.2253 18.2334 28.5451 17.4279C28.8649 16.6272 29.0204 15.8013 28.9154 14.9329C28.7403 13.5 28.1553 12.2859 27.1097 11.3339C25.8733 10.2101 24.4331 9.76012 22.8124 10.0108C20.1764 10.4193 18.2654 12.8467 18.2756 15.5719Z" fill="url(#paint0_radial_219_386)"/>
<path d="M31.9176 35.1031C31.5858 35.1132 31.2133 35.0722 30.8408 34.9931C29.7389 34.7519 28.8031 34.2509 28.0838 33.3626C27.6464 32.821 27.2787 32.234 26.9617 31.6166C26.5891 30.8892 26.2777 30.1313 26.0062 29.3642C25.6744 28.4362 25.3927 27.4879 25.1758 26.5295C25.0554 25.9925 25.1908 25.6561 25.7846 25.4711C26.539 25.2354 27.299 25.0247 28.0737 24.8538C29.3563 24.5727 30.6491 24.3924 31.9677 24.4369C32.3403 24.4518 32.712 24.4918 33.0797 24.557C34.1464 24.7429 35.0517 25.2346 35.7912 26.012C37.0543 27.3365 37.5567 28.9169 37.2452 30.7183C36.7976 33.2924 34.5133 35.1234 31.9176 35.1031Z" fill="url(#paint1_radial_219_386)"/>
<path d="M15.3039 35.1031C15.6357 35.1132 16.0082 35.0722 16.3806 34.9931C17.4825 34.7519 18.4184 34.2509 19.1376 33.3626C19.5751 32.821 19.9428 32.234 20.2598 31.6166C20.6324 30.8892 20.9438 30.1313 21.2153 29.3642C21.5471 28.4362 21.8288 27.4879 22.0456 26.5295C22.1661 25.9925 22.0307 25.6561 21.4368 25.4711C20.6825 25.2354 19.9225 25.0247 19.1478 24.8538C17.8652 24.5727 16.5724 24.3924 15.2537 24.4369C14.8812 24.4518 14.5094 24.4918 14.1417 24.557C13.0751 24.7429 12.1697 25.2346 11.4302 26.012C10.1672 27.3365 9.66479 28.9169 9.97625 30.7183C10.4239 33.2924 12.7081 35.1234 15.3039 35.1031Z" fill="url(#paint2_radial_219_386)"/>
</g>
<defs>
<radialGradient id="paint0_radial_219_386" cx="0" cy="0" r="1" gradientUnits="userSpaceOnUse" gradientTransform="translate(23.7141 22.9562) rotate(4.82254) scale(5.66935 10.4798)">
<stop stop-color="white"/>
<stop offset="1" stop-color="#009BD8"/>
</radialGradient>
<radialGradient id="paint1_radial_219_386" cx="0" cy="0" r="1" gradientUnits="userSpaceOnUse" gradientTransform="translate(25.1949 26.2014) rotate(21.7759) scale(12.5021 6.68082)">
<stop stop-color="white"/>
<stop offset="1" stop-color="#FF3044"/>
</radialGradient>
<radialGradient id="paint2_radial_219_386" cx="0" cy="0" r="1" gradientUnits="userSpaceOnUse" gradientTransform="translate(21.9602 25.7484) rotate(146.321) scale(12.6342 5.74292)">
<stop stop-color="white"/>
<stop offset="1" stop-color="#FCFF7C"/>
</radialGradient>
<clipPath id="clip0_219_386">
<rect width="48" height="48" fill="white"/>
</clipPath>
</defs>
</svg>
