<svg width="162" height="30" viewBox="0 0 162 30" fill="none" xmlns="http://www.w3.org/2000/svg">
<g clip-path="url(#clip0_225_1840)">
<mask id="mask0_225_1840" style="mask-type:luminance" maskUnits="userSpaceOnUse" x="-1" y="0" width="164" height="31">
<path d="M-0.000366211 30.0005H162V0.000162125H-0.000366211V30.0005Z" fill="white"/>
</mask>
<g mask="url(#mask0_225_1840)">
<path d="M161.549 8.06572H158.007C157.383 8.06572 156.807 8.65143 156.8 8.66386L143.345 26.232C143.093 26.5591 142.694 26.5515 142.454 26.2159L130.03 8.66627C130.023 8.65143 129.561 8.05049 128.692 8.05049H104.827C104.41 8.05049 104.073 7.71494 104.076 7.30121L104.092 1.50344C104.092 0.671177 103.416 -0.000324249 102.587 -0.000324249H66.0348C60.3736 0.190502 57.952 0.755363 55.362 2.26314C52.9742 3.65906 51.7823 5.42982 51.7823 7.55859C51.7823 9.81564 53.6295 12.041 57.3249 14.2367C58.2744 14.8064 61.6949 16.4497 67.578 19.1609C71.2743 20.864 73.2678 22.2651 73.1238 23.649C72.8995 25.8752 70.8707 26.6393 66.0348 26.6393H43.9339C43.3989 26.6393 42.9623 26.5467 42.9623 26.1301C42.9623 25.9261 43.0845 25.7397 43.3153 25.5933L43.3113 25.5901C48.2597 22.6243 49.8922 18.6173 49.8922 14.9856C49.8922 8.19 44.1607 -0.000324249 21.3419 -0.000324249H1.50219C0.672486 -0.000324249 0.000366211 0.671177 0.000366211 1.50344V28.5031C0.000366211 29.3277 0.672491 30 1.5046 30H21.3419C22.0992 30 22.834 29.9908 23.5468 29.9719H73.1669C77.6989 29.9719 81.2388 29.2247 83.7954 27.7365C86.1559 26.3514 87.3357 24.5995 87.3357 22.4579C87.3357 20.2105 85.489 17.9891 81.7939 15.7954C80.848 15.2273 77.4295 13.5728 71.5372 10.8491C67.8433 9.14734 65.9962 7.77106 65.9962 6.71951C65.9962 4.46406 68.3888 3.37082 73.1669 3.37082H89.941C90.3566 3.37082 90.6931 3.70436 90.6955 4.11689L90.6847 23.7075C90.6847 26.5795 92.5905 29.9719 98.367 29.9719H144.473C145.565 29.9719 146.117 29.268 146.117 29.268L161.915 8.56404C161.915 8.56404 162.265 8.06572 161.549 8.06572ZM18.3619 26.7527H13.4778C13.0617 26.7527 12.7245 26.4172 12.7245 26.0043V3.9866C12.7245 3.57367 13.0617 3.23732 13.4738 3.23732H18.3619C30.4453 3.23732 36.8545 8.19 36.8545 14.9856C36.8545 21.8109 30.3846 26.7527 18.3619 26.7527ZM129.041 26.8333H107.743C104.78 26.8333 104.073 25.9906 104.073 23.7075V11.9284C104.073 11.5327 104.387 11.2148 104.774 11.1875H117.141C117.531 11.2148 118.001 11.4485 118.248 11.7456L129.353 26.2693C129.571 26.5795 129.439 26.8333 129.041 26.8333Z" fill="#0095DA"/>
</g>
</g>
<defs>
<clipPath id="clip0_225_1840">
<rect width="162" height="30" fill="white"/>
</clipPath>
</defs>
</svg>
