<svg width="111" height="30" viewBox="0 0 111 30" fill="none" xmlns="http://www.w3.org/2000/svg">
<g clip-path="url(#clip0_225_1893)">
<path d="M105.062 14.2813L111 29.9706C109.25 29.7212 107.501 29.4087 105.72 29.1273L102.375 20.4583L98.9381 28.4116C97.2511 28.1302 95.5941 28.0364 93.907 27.8179L99.9381 14.0948L94.4679 0.0292969H99.531L102.593 7.88791L105.875 0.0292969H110.999L105.062 14.2813ZM90.4701 0.0292969H85.8761V27.226C87.3761 27.3199 88.938 27.3817 90.4701 27.5683V0.0292969ZM81.9071 26.9137C77.7201 26.6332 73.532 26.3847 69.251 26.2899V0.0294174H73.9382V21.8615C76.6261 21.9234 79.3131 22.141 81.9071 22.2657V26.9137ZM64.25 10.6654V15.3432H57.8441V25.9784H53.2201V0.0292969H66.3451V4.70711H57.8451V10.6655H64.251L64.25 10.6654ZM45.3441 4.70711V26.2279C43.7811 26.2279 42.1882 26.2279 40.6561 26.2899V4.70711H35.8122V0.0292969H50.2179V4.70711H45.3441ZM30.7502 15.5918C28.6881 15.5918 26.2501 15.5918 24.5001 15.6866V22.641C27.2501 22.4533 30.0001 22.2357 32.781 22.142V26.6332L19.8131 27.6631V0.0292969H32.7802V4.70711H24.5V11.0077C26.313 11.0077 29.094 10.914 30.75 10.914V15.5928L30.7502 15.5918ZM4.78007 12.9719V29.3149C3.09407 29.5025 1.59303 29.7211 0 29.9706V0.0292969H4.46907L10.5622 17.0281V0.0292969H15.2501V28.0364C13.5941 28.3179 11.9062 28.4116 10.1252 28.6602L4.78007 12.9719Z" fill="#E50914"/>
</g>
<defs>
<clipPath id="clip0_225_1893">
<rect width="111" height="30" fill="white"/>
</clipPath>
</defs>
</svg>
