<svg width="33" height="32" viewBox="0 0 33 32" fill="none" xmlns="http://www.w3.org/2000/svg">
<g clip-path="url(#clip0_219_805)">
<path d="M5.84375 0H27.1563C30.3875 0 33 2.59829 33 5.81197V26.188C33 29.4017 30.3875 32 27.1563 32H5.84375C2.6125 32 0 29.4017 0 26.188V5.81197C0 2.59829 2.6125 0 5.84375 0Z" fill="#00005B"/>
<path d="M7.83752 22.4273V8.34185C7.83752 8.24613 7.87877 8.19143 7.97502 8.19143C8.20877 8.19143 8.42877 8.19143 8.74502 8.17775C9.07502 8.16408 9.41877 8.16408 9.79002 8.1504C10.1613 8.13673 10.56 8.13673 10.9863 8.12305C11.4125 8.10938 11.825 8.10938 12.2375 8.10938C13.365 8.10938 14.3 8.24613 15.07 8.53331C15.7575 8.76579 16.39 9.14869 16.9125 9.65467C17.3525 10.0923 17.6963 10.6256 17.9163 11.2136C18.1225 11.788 18.2325 12.376 18.2325 12.9914C18.2325 14.1675 17.9575 15.1384 17.4075 15.9042C16.8575 16.6701 16.0875 17.2444 15.1938 17.5726C14.2588 17.9145 13.2275 18.0376 12.1 18.0376C11.77 18.0376 11.55 18.0376 11.4125 18.0239C11.275 18.0102 11.0825 18.0102 10.8213 18.0102V22.4C10.835 22.4957 10.7663 22.5778 10.67 22.5914H10.615H8.00252C7.89252 22.5914 7.83752 22.5367 7.83752 22.4136V22.4273ZM10.835 10.8444V15.4393C11.0275 15.453 11.2063 15.4666 11.3713 15.4666H12.1C12.6363 15.4666 13.1725 15.3846 13.6813 15.2205C14.1213 15.0974 14.5063 14.8376 14.8088 14.4957C15.0975 14.1538 15.235 13.6889 15.235 13.0872C15.2488 12.6632 15.1388 12.2393 14.9188 11.8701C14.685 11.5145 14.355 11.241 13.9563 11.0906C13.4475 10.8854 12.8975 10.8034 12.3338 10.8171C11.9763 10.8171 11.66 10.8171 11.3988 10.8307C11.1238 10.8171 10.9313 10.8307 10.835 10.8444Z" fill="#9999FF"/>
<path d="M20.2125 11.6512H22.6188C22.7563 11.6512 22.8663 11.7469 22.9075 11.87C22.9488 11.9794 22.9763 12.0888 22.99 12.2119C23.0175 12.3486 23.045 12.4991 23.0588 12.6358C23.0725 12.7863 23.0863 12.9504 23.0863 13.1281C23.4988 12.6495 23.9938 12.2529 24.5575 11.9521C25.19 11.5965 25.9188 11.4187 26.6475 11.4187C26.7438 11.4051 26.8263 11.4734 26.84 11.5692V11.6239V14.2905C26.84 14.3999 26.7713 14.441 26.62 14.441C26.125 14.4273 25.6163 14.4683 25.135 14.5777C24.7363 14.6598 24.3513 14.7828 23.98 14.9469C23.7188 15.07 23.4713 15.2341 23.2788 15.4529V22.4273C23.2788 22.564 23.2238 22.6187 23.1 22.6187H20.3913C20.2813 22.6324 20.185 22.564 20.1713 22.4546V22.3999V14.8239C20.1713 14.4957 20.1713 14.1538 20.1575 13.7982C20.1438 13.4427 20.1438 13.0871 20.13 12.7316C20.13 12.417 20.1025 12.1162 20.075 11.8016C20.0613 11.7333 20.1025 11.6649 20.1713 11.6512C20.1713 11.6375 20.1988 11.6375 20.2125 11.6512Z" fill="#9999FF"/>
</g>
<defs>
<clipPath id="clip0_219_805">
<rect width="33" height="32" fill="white"/>
</clipPath>
</defs>
</svg>
