<svg width="64" height="40" viewBox="0 0 64 40" fill="none" xmlns="http://www.w3.org/2000/svg">
<g clip-path="url(#clip0_225_1895)">
<path d="M0.920004 23.36C0.748004 23.368 0.579204 23.3112 0.448004 23.2C0.336004 23.0664 0.284004 22.8928 0.304004 22.72V6.39995C0.284004 6.22715 0.336004 6.05355 0.448004 5.91995C0.580804 5.81915 0.745604 5.77115 0.912004 5.78395H2.688C3.024 5.75035 3.3264 5.98635 3.376 6.31995L3.552 6.95995C4.0632 6.46635 4.6672 6.07755 5.328 5.81595C6.004 5.54235 6.7264 5.40075 7.456 5.39995C8.9104 5.35195 10.3008 5.99916 11.2 7.14396C12.1904 8.50876 12.6824 10.172 12.592 11.856C12.6192 13.0784 12.3848 14.292 11.904 15.416C11.5072 16.352 10.8624 17.1624 10.04 17.76C9.2448 18.3024 8.2984 18.5824 7.336 18.56C6.6824 18.5632 6.0328 18.4552 5.416 18.24C4.8488 18.0496 4.3248 17.7504 3.872 17.36V22.736C3.8896 22.9072 3.8416 23.0792 3.736 23.216C3.5992 23.3216 3.4272 23.3696 3.256 23.352L0.920004 23.36ZM6.304 15.872C7.0944 15.9288 7.8592 15.5752 8.328 14.936C8.8264 14.0416 9.052 13.0208 8.976 12C9.0528 10.9696 8.8304 9.93915 8.336 9.03195C7.8656 8.38635 7.0928 8.03195 6.296 8.09595C5.4504 8.09675 4.6216 8.32555 3.896 8.75995V15.2C4.616 15.648 5.448 15.8832 6.296 15.88L6.304 15.872Z" fill="#00A8E1"/>
<path d="M15.632 18.304C15.3456 18.3576 15.0696 18.1688 15.016 17.8816C15.004 17.8176 15.004 17.752 15.016 17.688V6.39996C14.996 6.22716 15.048 6.05356 15.16 5.91996C15.2928 5.81916 15.4576 5.77116 15.624 5.78396H17.392C17.728 5.75036 18.0304 5.98636 18.08 6.31996L18.4 7.63196C18.9256 7.01676 19.5536 6.49676 20.256 6.09596C20.8288 5.79596 21.4656 5.63996 22.112 5.63996H22.456C22.6296 5.62476 22.8032 5.67276 22.944 5.77596C23.056 5.90956 23.108 6.08316 23.088 6.25596V8.31996C23.1016 8.48636 23.0536 8.65116 22.952 8.78396C22.8184 8.89596 22.6448 8.94796 22.472 8.92796H22.032C21.8504 8.92796 21.6216 8.92796 21.344 8.92796C20.8816 8.93756 20.4208 8.99116 19.968 9.08796C19.496 9.17516 19.0352 9.31196 18.592 9.49596V17.696C18.6048 17.8624 18.5568 18.0272 18.456 18.16C18.3224 18.272 18.1488 18.324 17.976 18.304H15.632Z" fill="#00A8E1"/>
<path d="M26.6321 3.83204C26.0865 3.85924 25.5513 3.67604 25.1361 3.32004C24.7505 2.95924 24.5433 2.44724 24.5681 1.92004C24.5409 1.38964 24.7481 0.87444 25.1361 0.51204C26.0129 -0.18956 27.2593 -0.18956 28.1361 0.51204C28.5217 0.87284 28.7289 1.38484 28.7041 1.91204C28.7289 2.43924 28.5217 2.95124 28.1361 3.31204C27.7201 3.67284 27.1817 3.85924 26.6321 3.83204ZM25.4561 18.312C25.1697 18.3656 24.8937 18.1768 24.8401 17.8896C24.8281 17.8256 24.8281 17.76 24.8401 17.696V6.40004C24.8201 6.22724 24.8721 6.05364 24.9841 5.92004C25.1169 5.81924 25.2817 5.77124 25.4481 5.78404H27.8081C27.9793 5.76644 28.1513 5.81444 28.2881 5.92004C28.3937 6.05684 28.4417 6.22884 28.4241 6.40004V17.696C28.4377 17.8624 28.3897 18.0272 28.2881 18.16C28.1545 18.272 27.9809 18.324 27.8081 18.304L25.4561 18.312Z" fill="#00A8E1"/>
<path d="M32.08 18.3038C31.7936 18.3574 31.5176 18.1686 31.464 17.8814C31.452 17.8174 31.452 17.7518 31.464 17.6878V6.3998C31.444 6.227 31.496 6.0534 31.608 5.9198C31.7408 5.819 31.9056 5.771 32.072 5.7838H33.84C34.176 5.7502 34.4784 5.9862 34.528 6.3198L34.728 6.98379C35.456 6.48219 36.2432 6.0742 37.072 5.7678C37.756 5.5294 38.4752 5.4054 39.2 5.3998C40.4608 5.2918 41.672 5.91339 42.32 6.99979C43.0504 6.49739 43.844 6.0942 44.68 5.7998C45.4176 5.5542 46.1904 5.43019 46.968 5.43179C47.9504 5.37259 48.9136 5.71979 49.632 6.39179C50.2944 7.11819 50.6352 8.0822 50.576 9.0638V17.6958C50.5888 17.8622 50.5408 18.027 50.44 18.1598C50.3064 18.2718 50.1328 18.3238 49.96 18.3038H47.632C47.3456 18.3574 47.0696 18.1686 47.016 17.8814C47.004 17.8174 47.004 17.7518 47.016 17.6878V9.8158C47.016 8.7014 46.5176 8.1438 45.52 8.1438C44.5904 8.1542 43.6744 8.37339 42.84 8.78379V17.6958C42.8536 17.8622 42.8056 18.027 42.704 18.1598C42.5704 18.2718 42.3968 18.3238 42.224 18.3038H39.872C39.5856 18.3574 39.3096 18.1686 39.256 17.8814C39.244 17.8174 39.244 17.7518 39.256 17.6878V9.8158C39.256 8.7014 38.7576 8.1438 37.76 8.1438C36.8192 8.1494 35.8928 8.3774 35.056 8.8078V17.6878C35.0688 17.8542 35.0208 18.019 34.92 18.1518C34.7864 18.2638 34.6128 18.3158 34.44 18.2958L32.08 18.3038Z" fill="#00A8E1"/>
<path d="M59.136 18.6721C57.412 18.7849 55.7184 18.1801 54.456 17.0001C53.3016 15.6785 52.7248 13.9497 52.856 12.2001C52.7408 10.3865 53.3248 8.59689 54.488 7.20009C55.7 5.94889 57.3968 5.28569 59.136 5.38409C60.4224 5.30729 61.6928 5.70009 62.712 6.48809C63.5744 7.22409 64.0496 8.31609 64 9.44809C64.0584 10.5561 63.5296 11.6137 62.608 12.2321C61.3672 12.9409 59.9456 13.2689 58.52 13.1761C57.712 13.1857 56.9056 13.0945 56.12 12.9041C56.1248 13.7889 56.4816 14.6353 57.112 15.2561C57.8584 15.7857 58.7672 16.0377 59.68 15.9681C60.1264 15.9681 60.5728 15.9385 61.016 15.8801C61.6256 15.7857 62.2288 15.6569 62.824 15.4961H62.968H63.088C63.3656 15.4961 63.504 15.6857 63.504 16.0641V17.1921C63.5192 17.3833 63.4808 17.5745 63.392 17.7441C63.2784 17.8777 63.128 17.9745 62.96 18.0241C61.736 18.4745 60.44 18.6945 59.136 18.6721ZM58.336 10.9681C58.9656 11.0137 59.5952 10.8809 60.152 10.5841C60.5344 10.3225 60.7504 9.87849 60.72 9.41609C60.72 8.38649 60.1064 7.87209 58.88 7.87209C57.3064 7.87209 56.3976 8.83769 56.152 10.7681C56.8664 10.9049 57.5928 10.9721 58.32 10.9681H58.336Z" fill="#00A8E1"/>
<path d="M57.8479 32.088C50.8399 37.256 40.6799 40 31.9359 40C20.2511 40.0624 8.96314 35.764 0.279943 27.944C-0.376057 27.352 0.207943 26.544 0.999943 27C10.6463 32.508 21.5639 35.4008 32.6719 35.392C40.9607 35.348 49.1599 33.6704 56.7999 30.456C58.0159 29.952 59.0079 31.2 57.8479 32.088Z" fill="#00A8E1"/>
<path d="M60.8001 28.8C59.9041 27.656 54.88 28.256 52.616 28.528C51.928 28.608 51.8161 28.016 52.4401 27.584C56.4401 24.768 63.0241 25.584 63.7841 26.528C64.5441 27.472 63.5841 34.056 59.7841 37.2C59.2081 37.68 58.6561 37.424 58.9121 36.784C59.7681 34.632 61.6641 29.912 60.8001 28.8Z" fill="#00A8E1"/>
</g>
<defs>
<clipPath id="clip0_225_1895">
<rect width="64" height="40" fill="white"/>
</clipPath>
</defs>
</svg>
