<svg width="70" height="55" viewBox="0 0 70 55" fill="none" xmlns="http://www.w3.org/2000/svg">
<path d="M40.125 3.90625L42.6656 0C60.2438 11.8156 70.0094 26.1719 70.0094 37.9875C70.0094 49.4125 61.6094 54.7844 54.4813 54.7844C45.4969 54.7844 39.15 47.1656 39.15 39.1594C39.15 32.4219 43.4469 26.6594 49.2094 24.5094C50.8688 23.9219 52.4313 23.4344 52.4313 20.6031C52.4313 16.9906 49.7938 11.6219 40.125 3.90625ZM1.35628 3.90625L3.8969 0C21.2813 11.8156 31.2407 26.1719 31.2407 37.9875C31.2407 49.4125 22.6469 54.7844 15.5188 54.7844C6.43752 54.7844 -0.00935364 47.1656 -0.00935364 39.1594C-0.00935364 32.4219 4.3844 26.6594 10.3438 24.5094C12.0031 23.9219 13.4688 23.4344 13.4688 20.6031C13.4688 16.9906 10.7344 11.6188 1.3594 3.90313L1.35628 3.90625Z" fill="#4F46E5"/>
</svg>
